<?xml version="1.0" encoding="UTF-8" standalone="no"?>
<!-- Created with Inkscape (http://www.inkscape.org/) -->

<svg
   width="329.25912"
   height="321.53671"
   viewBox="0 0 329.25912 321.53671"
   version="1.1"
   id="svg1"
   xml:space="preserve"
   xmlns="http://www.w3.org/2000/svg"
   xmlns:svg="http://www.w3.org/2000/svg"><defs
     id="defs1"><clipPath
       clipPathUnits="userSpaceOnUse"
       id="clipPath14"><path
         id="path14"
         style="display:inline;fill:#cfcfcf;fill-opacity:1;stroke:none;stroke-width:0.901715;stroke-linecap:round;stroke-linejoin:round"
         d="m 116.13281,104.14844 c -3.75853,0 -7.42591,4.67375 -10.60937,13.52539 -5.834214,16.22205 -9.601732,52.03427 -9.158206,87.0332 L 96.5625,220.24414 98,224.89062 c 4.07427,13.16503 11.22279,24.89901 21.20898,34.8125 2.62745,2.60832 6.24714,5.83079 8.04493,7.16211 1.79779,1.33133 3.26953,2.69275 3.26953,3.02539 0,0.33264 -0.53492,2.18238 -1.1875,4.10938 -3.77884,11.15848 -0.32761,22.6224 9.79492,32.54297 l 3.56641,3.49414 v 3.625 c 0,7.56898 2.18178,16.16128 6.06835,23.89844 2.53657,5.04964 5.08911,8.85405 8.96094,13.35937 l 2.26172,2.63281 0.60352,-2.35546 c 2.03332,-7.94524 9.46254,-14.80365 18.28906,-16.88477 3.77778,-0.89076 10.78904,-0.87057 13.89258,0.041 6.04271,1.7749 11.04555,5.69187 13.30664,10.41796 0.98048,2.0494 1.29226,3.45569 1.44726,6.50977 0.31325,6.17238 -1.52003,10.6024 -6.35937,15.36719 -7.33494,7.22195 -21.03319,9.6875 -29.58594,5.32422 l -1.87109,-0.95313 -2.33594,1.25781 c -3.14823,1.69472 -7.05559,5.68711 -8.52148,8.70899 -1.43429,2.95672 -2.3657,7.65625 -1.95313,9.85547 0.97475,5.19586 6.66931,9.98419 13.97461,11.75195 3.82566,0.92575 14.52012,1.35048 34.39648,1.36328 23.28203,0.015 30.5289,-0.65596 34.68555,-3.21094 l 1.45313,-0.89453 -2.63086,-2.18945 c -8.92524,-7.42766 -14.24919,-21.47791 -13.41407,-35.39844 0.64268,-10.71253 4.51407,-18.70249 10.6875,-22.0625 10.9733,-5.97241 23.58772,-0.6305 30.03125,12.71875 3.16945,6.56625 5.22898,9.59435 8.89649,13.07813 8.64071,8.20783 21.47384,12.545 41.74609,14.10937 20.57609,1.58781 42.81231,-2.58086 56.90039,-10.66601 3.72858,-2.13984 4.6245,-2.3752 5.0293,-1.32032 0.41492,1.08128 -1.37207,2.38485 -7.15039,5.21289 -7.91434,3.87346 -15.17285,6.10002 -26.59961,8.16016 -5.255,0.94743 -7.19033,1.05673 -18.71094,1.05274 -13.48962,-0.004 -17.20952,-0.32371 -26.61914,-2.28516 -12.15824,-2.53438 -21.01667,-6.81208 -27.20117,-13.13867 -3.43969,-3.51871 -4.79533,-5.55577 -7.88281,-11.84571 -2.13124,-4.34181 -3.09365,-5.74025 -5.92578,-8.60937 -4.5428,-4.60212 -8.2603,-6.47689 -12.81446,-6.45899 -9.29015,0.0366 -15.46038,6.26029 -17.43164,17.58008 -0.7794,4.47564 -0.27488,14.86047 0.93946,19.35352 2.16746,8.01963 6.35179,14.68346 12.07617,19.23242 13.56595,10.78037 37.1491,18.80319 60.73828,20.66016 6.35854,0.50055 35.96293,0.20796 42.15625,-0.41602 15.3476,-1.54629 31.65831,-5.75112 46.32031,-11.94336 16.60423,-7.01249 25.88515,-18.36851 26.60938,-32.55859 0.34741,-6.80709 -0.74403,-11.77153 -4.05078,-18.41992 -2.35265,-4.73012 -5.08802,-8.52061 -8.81446,-12.21875 -2.81073,-2.78939 -8.79791,-7.39258 -9.61523,-7.39258 -0.19549,0 -0.41659,0.96276 -0.49219,2.14062 -0.11727,1.82755 -0.28665,2.16416 -1.15234,2.28711 -0.99562,0.14139 -1.01358,0.0564 -1.01758,-4.50976 -0.0264,-33.20639 -20.48811,-63.32664 -53.875,-79.31055 -13.24826,-6.34258 -27.75012,-10.11543 -40.80274,-10.61524 -3.09963,-0.11869 -6.04117,-0.29906 -6.53711,-0.40039 -0.55408,-0.11321 -1.41715,-1.19086 -2.24023,-2.79296 -2.97778,-5.79627 -8.86799,-9.92528 -15.79297,-11.07227 -4.23997,-0.70228 -3.91737,0.77266 -2.53711,-11.59766 2.02583,-18.15613 2.48247,-26.90784 2.50977,-48.01562 0.0285,-22.07951 -0.43931,-28.67999 -2.65039,-37.32227 -3.17931,-12.42671 -7.0596,-16.63005 -13.04102,-14.13086 -4.40023,1.83854 -16.21559,9.90145 -31.08789,21.21289 -4.91412,3.73755 -9.58588,7.24857 -10.38086,7.80274 l -1.44531,1.00781 -4.04688,-1.74414 c -10.27615,-4.42905 -20.83593,-6.20647 -34.25586,-5.76758 -5.26951,0.17234 -9.05831,0.54805 -12.12695,1.20508 l -4.46484,0.95508 -13.11914,-13.40235 c -19.45387,-19.87437 -26.40118,-25.86718 -29.99024,-25.86718 z m 69.21485,231.81836 c -1.91394,0.0421 -3.88267,0.30689 -5.86719,0.81445 -4.52007,1.15604 -7.45376,2.77031 -10.94922,6.0293 -9.98182,9.30654 -6.99692,22.90326 6.06641,27.63086 2.71547,0.98276 3.59263,1.08185 8.22461,0.92187 4.2452,-0.14663 5.75776,-0.3985 8.34179,-1.38476 8.76156,-3.34409 14.75281,-11.35236 14.07617,-18.81446 -0.83327,-9.18951 -9.55729,-15.42455 -19.89257,-15.19726 z" /></clipPath><clipPath
       clipPathUnits="userSpaceOnUse"
       id="clipPath82"><path
         id="path82"
         style="display:inline;fill:#cfcfcf;fill-opacity:1;stroke:none;stroke-width:0.894212;stroke-linecap:round;stroke-linejoin:round"
         d="m 115.91837,105.74502 c -3.71783,0 -7.3455,4.64661 -10.49449,13.44684 -5.771031,16.12785 -9.49775,51.73211 -9.059027,86.5278 l 0.19513,15.44688 1.421933,4.6195 c 4.030154,13.08858 11.101254,24.75442 20.979304,34.61034 2.599,2.59317 6.17949,5.79693 7.95781,7.12052 1.77833,1.3236 3.23413,2.67711 3.23413,3.00782 0,0.33071 -0.52913,2.16971 -1.17464,4.08552 -3.73792,11.09368 -0.32406,22.49103 9.68885,32.35399 l 3.52779,3.47385 v 3.60394 c 0,7.52503 2.15815,16.06743 6.00263,23.75966 2.5091,5.02032 5.034,8.80264 8.8639,13.2818 l 2.23723,2.61752 0.59699,-2.34179 c 2.0113,-7.8991 9.36007,-14.71768 18.091,-16.78671 3.73687,-0.88559 10.67221,-0.86552 13.74214,0.0408 5.97727,1.76459 10.92594,5.65881 13.16254,10.35746 0.96986,2.0375 1.27827,3.43562 1.43159,6.47197 0.30986,6.13653 -1.50357,10.54083 -6.2905,15.27795 -7.25551,7.18001 -20.80543,9.63124 -29.26556,5.2933 l -1.85083,-0.94759 -2.31064,1.2505 c -3.11414,1.68488 -6.97918,5.65409 -8.4292,8.65842 -1.41876,2.93955 -2.34008,7.61179 -1.93198,9.79824 0.9642,5.16568 6.59709,9.92621 13.82328,11.6837 3.78423,0.92038 14.36288,1.34264 34.024,1.35536 23.02991,0.0149 30.1983,-0.65215 34.30994,-3.19229 l 1.43739,-0.88933 -2.60237,-2.17674 c -8.82859,-7.38453 -14.09488,-21.35319 -13.26881,-35.19288 0.63572,-10.65032 4.46519,-18.59388 10.57177,-21.93438 10.85447,-5.93773 23.33228,-0.62684 29.70604,12.64489 3.13512,6.52812 5.17235,9.53864 8.80015,13.00219 8.54714,8.16016 21.24129,12.47215 41.29402,14.02743 20.35327,1.57859 42.34869,-2.56587 56.28421,-10.60407 3.6882,-2.12741 4.57442,-2.36141 4.97484,-1.31265 0.41042,1.075 -1.35722,2.371 -7.07296,5.18262 -7.82864,3.85096 -15.00854,6.06459 -26.31156,8.11277 -5.1981,0.94193 -7.11247,1.05059 -18.50832,1.04663 -13.34354,-0.004 -17.02316,-0.32183 -26.33088,-2.27189 -12.02658,-2.51967 -20.78908,-6.77253 -26.90661,-13.06238 -3.40244,-3.49827 -4.7434,-5.5235 -7.79745,-11.77692 -2.10816,-4.3166 -3.06014,-5.70691 -5.86161,-8.55937 -4.4936,-4.5754 -8.17084,-6.43928 -12.67569,-6.42149 -9.18954,0.0364 -15.29296,6.22394 -17.24287,17.478 -0.77096,4.44965 -0.2719,14.77417 0.92929,19.24113 2.14399,7.97306 6.283,14.59819 11.94539,19.12073 13.41905,10.71777 36.74681,18.694 60.08055,20.54019 6.28968,0.49764 35.57348,0.20675 41.69973,-0.41361 15.1814,-1.53731 31.31549,-5.71772 45.81871,-11.874 16.42442,-6.97177 25.60484,-18.26184 26.32123,-32.36952 0.34364,-6.76756 -0.73598,-11.70317 -4.00692,-18.31295 -2.32717,-4.70265 -5.03292,-8.47113 -8.71901,-12.1478 -2.78029,-2.77319 -8.70263,-7.34965 -9.5111,-7.34965 -0.19338,0 -0.41208,0.95717 -0.48686,2.12819 -0.116,1.81694 -0.28355,2.15159 -1.13986,2.27383 -0.98484,0.14057 -1.00261,0.0561 -1.00656,-4.48357 -0.0261,-33.01356 -20.26625,-62.9589 -53.29159,-78.84999 -13.10479,-6.30575 -27.44961,-10.05669 -40.36088,-10.5536 -3.06607,-0.118 -5.97575,-0.29732 -6.46632,-0.39806 -0.54808,-0.11255 -1.40181,-1.18394 -2.21597,-2.77674 -2.94554,-5.76261 -8.77196,-9.86764 -15.62195,-11.00797 -4.19406,-0.69821 -3.87495,0.76817 -2.50964,-11.53032 2.0039,-18.05069 2.45559,-26.75158 2.48259,-47.73678 0.0282,-21.9513 -0.43455,-28.51345 -2.62168,-37.10554 -3.14489,-12.35455 -6.98316,-16.53348 -12.8998,-14.0488 -4.35258,1.82786 -16.03999,9.84395 -30.75124,21.0897 -4.8609,3.71585 -9.48207,7.20648 -10.26845,7.75743 l -1.42965,1.00196 -4.00306,-1.73401 c -10.16487,-4.40333 -20.6103,-6.17043 -33.8849,-5.73409 -5.21245,0.17134 -8.96022,0.54487 -11.99563,1.19808 l -4.41649,0.94954 -12.97707,-13.32453 c -19.2432,-19.75899 -26.11528,-25.717 -29.66547,-25.717 z m 68.46531,230.47217 c -1.89321,0.0419 -3.84062,0.30511 -5.80365,0.80972 -4.47112,1.14933 -7.37304,2.75422 -10.83065,5.99429 -9.87373,9.25249 -6.92115,22.77026 6.00072,27.4704 2.68606,0.97706 3.55372,1.07557 8.13554,0.91652 4.19923,-0.14578 5.69541,-0.39619 8.25146,-1.37672 8.66668,-3.32467 14.59305,-11.28644 13.92374,-18.7052 -0.82425,-9.13615 -9.4538,-15.33498 -19.67716,-15.10901 z" /></clipPath></defs><g
     id="layer2"
     style="display:inline"
     transform="translate(-92.050705,-100.07224)"><path
       style="fill:#f0e8db;fill-opacity:1;stroke:none;stroke-width:0.901715;stroke-linecap:round;stroke-linejoin:round"
       d="m 301.31574,417.93166 c -23.5892,-1.85697 -47.17271,-9.87827 -60.73868,-20.65865 -5.72438,-4.54896 -9.90932,-11.21392 -12.07679,-19.23356 -1.21434,-4.49305 -1.71797,-14.87831 -0.93857,-19.35395 1.97126,-11.3198 8.14159,-17.54217 17.43175,-17.57876 4.55416,-0.0179 8.27173,1.85544 12.81453,6.45756 2.83214,2.86912 3.79478,4.26768 5.92602,8.6095 3.08749,6.28994 4.44292,8.3268 7.88261,11.84551 6.18451,6.3266 15.04225,10.60558 27.2005,13.13996 9.40963,1.96145 13.12987,2.28078 26.61951,2.28491 11.52062,0.004 13.45558,-0.10534 18.71059,-1.05277 11.42677,-2.06014 18.68625,-4.28725 26.6006,-8.16071 5.77833,-2.82805 7.56502,-4.13035 7.1501,-5.21163 -0.4048,-1.05488 -1.30095,-0.81966 -5.02953,1.32018 -14.0881,8.08516 -36.32366,12.25294 -56.89977,10.66513 -20.27227,-1.56437 -33.10603,-5.902 -41.74675,-14.10984 -3.66751,-3.48378 -5.72654,-6.51046 -8.89599,-13.07671 -6.44354,-13.34927 -19.05961,-18.69277 -30.03292,-12.72035 -6.17344,3.36001 -10.04398,11.35113 -10.68666,22.06367 -0.83513,13.92054 4.48941,27.97094 13.41466,35.39861 l 2.63059,2.1892 -1.45337,0.89334 c -4.15666,2.55498 -11.40429,3.22589 -34.68634,3.2109 -19.87638,-0.0128 -30.57,-0.43624 -34.39566,-1.36199 -7.30531,-1.76776 -12.99895,-6.55619 -13.9737,-11.75206 -0.41257,-2.19922 0.51865,-6.89849 1.95294,-9.85521 1.4659,-3.02188 5.37208,-7.01483 8.52031,-8.70955 l 2.33731,-1.2582 1.86923,0.9536 c 8.55276,4.36329 22.25195,1.89842 29.5869,-5.32354 4.83935,-4.76479 6.67301,-9.19579 6.35976,-15.36818 -0.155,-3.05408 -0.46772,-4.45965 -1.4482,-6.50905 -2.26109,-4.7261 -7.26435,-8.64313 -13.30707,-10.41804 -3.10354,-0.91159 -10.11459,-0.93286 -13.89237,-0.0421 -8.82653,2.08112 -16.25511,8.93954 -18.28844,16.88478 l -0.60318,2.35692 -2.26278,-2.63299 c -3.87184,-4.50533 -6.42442,-8.31124 -8.96099,-13.36089 -3.88658,-7.73716 -6.06832,-16.32934 -6.06832,-23.89833 v -3.62436 l -3.56597,-3.49483 c -10.12254,-9.92058 -13.57254,-21.38438 -9.7937,-32.54287 0.65258,-1.927 1.18651,-3.7758 1.18651,-4.10844 0,-0.33265 -1.47092,-1.69407 -3.26872,-3.0254 -1.79779,-1.33133 -5.41845,-4.55468 -8.0459,-7.163 -9.9862,-9.9135 -17.13489,-21.64719 -21.209158,-34.81223 l -1.437893,-4.64621 -0.1969,-15.5375 c -0.443527,-34.99897 3.325416,-70.81054 9.159631,-87.03261 3.18347,-8.85165 6.84917,-13.52573 10.60771,-13.52573 3.58906,0 10.53713,5.99267 29.99102,25.86706 l 13.12008,13.40366 4.46337,-0.95567 c 3.06864,-0.65703 6.85843,-1.03399 12.12795,-1.20633 13.41994,-0.43889 23.97854,1.33906 34.2547,5.76812 l 4.04725,1.74437 1.44542,-1.00758 c 0.79498,-0.55417 5.46607,-4.06558 10.3802,-7.80313 14.87231,-11.31146 26.68915,-19.37429 31.08939,-21.21283 5.98142,-2.4992 9.86048,1.70454 13.03979,14.13127 2.21109,8.64229 2.67996,15.24217 2.65142,37.3217 -0.0273,21.1078 -0.48493,29.86019 -2.51076,48.01634 -1.38026,12.37033 -1.703,10.895 2.53698,11.59728 6.92499,1.14699 12.81531,5.27695 15.79309,11.07322 0.82308,1.60211 1.68714,2.67837 2.24122,2.79158 0.49594,0.10133 3.43779,0.28134 6.53743,0.40004 13.05263,0.49981 27.55435,4.27256 40.80262,10.61515 33.38693,15.98393 53.84738,46.10536 53.87379,79.31178 0.004,4.56618 0.0225,4.64997 1.01812,4.50858 0.86569,-0.12295 1.03458,-0.4581 1.15185,-2.28565 0.0756,-1.17786 0.29737,-2.14157 0.49286,-2.14157 0.81732,0 6.8045,4.60317 9.61523,7.39256 3.72644,3.69815 6.46114,7.48963 8.81379,12.21975 3.30676,6.6484 4.39852,11.61242 4.05111,18.41951 -0.72423,14.1901 -10.00479,25.54552 -26.60904,32.55802 -14.66202,6.19224 -30.97351,10.39844 -46.32113,11.94473 -6.19332,0.62398 -35.79664,0.91509 -42.15519,0.41454 z"
       id="path1" /><path
       id="path9"
       clip-path="url(#clipPath14)"
       style="display:inline;fill:#deaa87;fill-opacity:1;stroke:none;stroke-width:0.5;stroke-linecap:round;stroke-linejoin:round;stroke-dasharray:none;stroke-opacity:1"
       d="m 291.04297,58.316406 c -60.21687,4.05e-4 -110.03338,86.964464 -109.03125,107.994144 1.00213,21.02968 -4.29996,61.28598 54.9043,93.45507 -4.60433,6.53297 -9.41806,13.21852 -9.50888,20.504 0.0251,5.51637 3.17277,13.33769 8.36825,17.62882 -32.24138,11.16825 -29.86395,47.05941 -32.92366,69.09328 -19.56507,1.02399 -30.13359,4.8556 -30.18181,21.87156 -6.2e-4,17.80027 16.62103,32.23054 37.125,32.23047 2.81255,-0.0273 5.61242,-0.33198 8.3457,-0.9082 18.45408,36.31821 55.93895,59.2924 96.98829,59.44336 60.21686,6.6e-4 109.03284,-48.34924 109.0332,-107.99219 -0.005,-5.53264 -0.43919,-11.05671 -1.29883,-16.52344 18.9534,-19.9511 29.5433,-46.29108 29.625,-73.68555 -0.0131,-38.70774 -20.94106,-74.44829 -54.85547,-93.68164 1.53406,-7.04656 2.35194,-14.22757 2.44141,-21.43554 7.3e-4,-59.64296 -48.81438,-107.993739 -109.03125,-107.994144 z" /><path
       id="path16"
       clip-path="url(#clipPath82)"
       style="display:inline;fill:#6c5353;fill-opacity:1;stroke:none;stroke-width:0.467407;stroke-linecap:round;stroke-linejoin:round;stroke-dasharray:none;stroke-opacity:1"
       d="m 146.82422,93.248047 c -5.77605,0.02883 -11.50514,0.821051 -16.94922,2.34375 -4.2791,-1.197522 -8.65246,-1.824908 -13.04297,-1.871094 -33.448588,-5.79e-4 -60.564317,33.015047 -60.564452,73.742187 1.34e-4,40.72714 27.115863,73.74277 60.564452,73.74219 49.46336,-0.001 64.69279,-58.90417 63.42854,-73.94214 3.26353,-1.88342 4.33107,-2.97653 5.94255,-6.87232 -2.32028,7.09856 7.75213,10.98596 10.69336,3.73438 0.60879,-1.83402 0.63575,-1.73271 1.01172,-4.23242 0.17447,-1.16001 0.32205,-2.32667 0.38477,-3.49805 0.15617,-2.91648 -0.0105,-5.161 -0.14063,-8.04687 -0.0789,-1.68965 -0.64907,-2.99405 -1.49023,-3.9336 1.18382,-3.38403 1.80878,-6.87447 1.85937,-10.38476 7e-5,-22.52283 -23.1456,-40.781232 -51.69726,-40.781253 z m 115.00195,20.308593 c -2.2469,-0.0175 -5.12006,0.77231 -7.51953,2.58398 -5.90112,4.45557 -11.81874,8.8893 -17.7207,13.34376 -5.25204,3.9896 -5.34165,4.04281 -10.28125,7.85351 -3.53006,2.72329 -7.14393,5.40041 -10.25,8.61719 -1.05417,1.19419 -1.55676,2.44626 -1.6543,3.64062 -0.0278,-0.691 -0.0482,-1.32691 -0.0762,-2.07226 -0.18041,-4.64609 -2.83674,-6.97186 -5.56836,-7.10938 -3.09584,-0.15585 -6.28846,2.49813 -6.08398,7.76367 0.0866,2.1449 0.27071,5.65008 0.19726,7.83008 -0.037,1.10071 -0.16349,2.19515 -0.27148,3.28907 -0.1651,1.67249 -0.12758,1.4216 -0.37305,2.47851 -3.10025,9.1949 7.70836,14.46834 10.80859,5.27344 0.62632,-2.26976 0.65227,-2.14469 1.03907,-5.23828 0.17949,-1.43561 0.33195,-2.87844 0.39648,-4.32813 0.10697,-2.40317 0.0568,-4.49494 -0.0215,-6.64062 0.65642,4.18371 6.23267,7.00882 10.10937,2.61718 2.68824,-2.62298 4.83873,-5.49136 7.49219,-8.13867 5.43639,-5.42378 7.18916,-7.44043 13.48047,-12.5039 6.29129,-5.06348 9.52313,-7.79982 17.23047,-13.43555 4.81708,-3.52233 2.81124,-5.79497 -0.9336,-5.82422 z m 56.86914,91.25781 c -33.08034,1.4e-4 -59.89702,27.70177 -59.89648,61.87305 0.003,21.00945 10.32745,40.58163 27.41601,51.97461 -0.18479,1.61329 -0.29948,3.23398 -0.34375,4.85742 -2.1e-4,30.68889 24.62526,55.56707 55.00196,55.56641 30.37593,-4.3e-4 55.00021,-24.8783 55,-55.56641 -0.007,-16.18062 -6.99395,-31.55466 -19.13672,-42.10547 1.18863,-4.8141 1.8116,-9.75856 1.85547,-14.72656 5.4e-4,-34.17129 -26.81615,-61.87292 -59.89649,-61.87305 z"
       transform="matrix(1.0109476,0,0,1.005841,-1.0545829,-2.2142341)" /><path
       style="fill:#6c5353;fill-opacity:1;stroke:none;stroke-width:0.5;stroke-linecap:round;stroke-linejoin:round;stroke-dasharray:none;stroke-opacity:1"
       d="m 230.15956,388.43075 c 0,0 7.48062,1.47165 20.06086,-5.0325 12.58025,-6.50414 20.98506,-18.53582 20.98506,-18.53582 l -8.91057,-18.78318 c 0.01,9.2e-4 -2.33365,-6.79461 -13.32858,-8.44375 -10.99493,-1.64913 -14.13826,3.16431 -14.13826,3.16431 l -6.33196,14.07097 0.75988,23.44966 z"
       id="path21" /><path
       style="fill:#6c5353;fill-opacity:1;stroke:none;stroke-width:0.5;stroke-linecap:round;stroke-linejoin:round;stroke-dasharray:none;stroke-opacity:1"
       id="path23"
       d="m 275.76751,371.32067 c 0.0102,0.29276 0.0476,0.58583 0.0307,0.87828 -0.19281,3.34716 -1.45129,6.95796 -2.63232,10.06588 -1.78124,4.48051 -4.83021,8.1855 -8.1098,11.64384 -2.63083,2.62515 -5.57851,4.89888 -8.7387,6.84572 -1.20101,0.68101 -2.42236,1.37422 -3.73874,1.80978 -0.44034,0.13371 -0.87064,0.31391 -1.32684,0.38562 0,0 12.40355,8.4459 12.40355,8.4459 v 0 c 0.42891,-0.19739 0.86151,-0.38622 1.28366,-0.59813 1.24107,-0.65399 2.38785,-1.44881 3.47582,-2.33552 2.92629,-2.31605 5.79624,-4.72051 8.39266,-7.40686 0.53315,-0.57898 1.08203,-1.14387 1.59947,-1.73694 2.72013,-3.11772 5.07305,-6.57675 6.71995,-10.38162 0.31101,-0.76136 0.64416,-1.51404 0.93302,-2.28407 1.05286,-2.8066 1.81838,-5.71912 2.96419,-8.49292 z" /><path
       style="display:inline;fill:#f0e8db;fill-opacity:1;stroke:none;stroke-width:0.901715;stroke-linecap:round;stroke-linejoin:round"
       d="m 174.59829,370.4421 c -13.06334,-4.7276 -16.04878,-18.32421 -6.06695,-27.63076 3.49546,-3.25899 6.42845,-4.87451 10.94852,-6.03055 12.70097,-3.24836 24.77326,3.49213 25.76085,14.38342 0.67664,7.4621 -5.31551,15.4711 -14.07708,18.81519 -2.58404,0.98627 -4.09565,1.23703 -8.34086,1.38366 -4.63198,0.15998 -5.509,0.0618 -8.22448,-0.92096 z"
       id="path2" /><path
       style="fill:#6c5353;fill-opacity:1;stroke:none;stroke-width:0.5;stroke-linecap:round;stroke-linejoin:round;stroke-dasharray:none;stroke-opacity:1"
       id="path39"
       d="m 296.65155,380.7461 c 0.81288,2.67238 1.03373,5.4759 1.17447,8.25137 0.0409,1.91649 0.005,3.84247 -0.28655,5.74113 -0.19853,1.29387 -0.30963,1.57578 -0.64483,2.83785 -1.12916,3.94407 -3.79084,7.07833 -6.50166,10.0462 -2.30511,2.37217 -4.87164,4.47369 -7.60278,6.3338 -0.91651,0.61403 -1.85116,1.24059 -2.88691,1.63663 -0.5168,0.11558 -0.95704,0.40097 -1.47101,0.53268 -0.15015,0.0856 -0.30382,0.14643 -0.47173,0.18206 0,0 11.19605,1.36545 11.19605,1.36545 v 0 c 0.13749,-0.0744 0.2762,-0.1427 0.43007,-0.17793 0.4791,-0.22775 0.98068,-0.40034 1.44104,-0.66152 0.91562,-0.56791 1.80521,-1.17786 2.63933,-1.8613 2.47682,-2.01373 4.70597,-4.30308 6.92821,-6.58958 2.5299,-2.73 5.01365,-5.58434 6.48893,-9.05426 0.20345,-0.47854 0.32669,-0.98734 0.49003,-1.481 0.73957,-2.9145 1.13603,-5.89999 0.91491,-8.91284 -0.18585,-2.78523 -0.5382,-5.55765 -0.65518,-8.34681 z" /><path
       style="fill:#6c5353;fill-opacity:1;stroke:none;stroke-width:0.5;stroke-linecap:round;stroke-linejoin:round;stroke-dasharray:none;stroke-opacity:1"
       id="path40"
       d="m 315.70283,382.87433 c 2.48877,2.26287 4.62129,4.95578 6.20075,7.92596 2.17647,4.73096 2.68336,10.22011 1.29069,15.25005 -1.47227,5.3291 -4.05679,10.47901 -8.04428,14.3665 -0.7991,0.54638 -1.16165,0.0933 -0.14591,0.32751 3.44336,0.48038 8.311,-2.64127 11.75436,-2.16089 2.93206,-2.76321 3.67249,-2.68307 5.21223,-6.38444 1.84718,-4.82684 3.10325,-10.06118 2.48459,-15.25057 -0.66041,-3.45651 -1.36389,-7.10859 -3.70204,-9.87808 -1.24995,-1.69225 -2.59947,-3.30753 -3.87625,-4.97916 z" /><path
       style="fill:#6c5353;fill-opacity:1;stroke:none;stroke-width:0.5;stroke-linecap:round;stroke-linejoin:round;stroke-dasharray:none;stroke-opacity:1"
       id="path41"
       d="m 335.35005,380.47767 c 2.70346,2.594 5.1767,5.42511 7.33401,8.49026 0.54079,0.76836 1.0433,1.56298 1.56494,2.34446 1.70252,2.78637 3.09576,5.76738 4.00612,8.90774 0.45599,1.57295 0.5089,2.07723 0.80482,3.67574 0.50342,3.47765 0.0121,6.34531 -1.08542,9.62795 -0.55867,1.57195 -1.27578,3.0663 -2.18634,4.45968 -0.35193,0.47632 -0.16289,0.25267 -0.56558,0.67228 0,0 11.10223,0.76923 11.10223,0.76923 v 0 c 0.4066,-0.55583 0.21826,-0.27428 0.56718,-0.84321 0.81061,-1.48227 1.21605,-3.151 1.77334,-4.73594 0.44226,-1.5358 0.8581,-3.07103 1.02644,-4.66707 0.19217,-1.82205 0.10556,-3.66499 -0.13077,-5.47745 -0.12067,-0.63677 -0.2116,-1.27991 -0.36202,-1.91032 -0.94045,-3.94145 -2.89356,-7.5711 -4.87512,-11.06751 -1.62634,-2.48689 -1.45927,-2.29854 -3.20085,-4.69501 -1.332,-1.83289 -2.77472,-3.58699 -4.07893,-5.43964 -0.20293,-0.28828 -0.38342,-0.59172 -0.57514,-0.88758 z" /><path
       style="fill:#6c5353;fill-opacity:1;stroke:none;stroke-width:0.5;stroke-linecap:round;stroke-linejoin:round;stroke-dasharray:none;stroke-opacity:1"
       id="path42"
       d="m 362.03873,378.15901 c 3.68401,0.0662 8.64691,-0.32961 -8.45084,0.0565 -0.3792,0.009 0.75495,0.0827 1.12728,0.15507 1.09285,0.21249 1.42172,0.375 2.49012,0.75209 2.63118,1.03888 4.89715,2.72029 6.99328,4.58532 1.62535,1.46577 2.91056,3.24469 4.05397,5.09815 0.96211,1.46634 1.57058,3.10672 2.1621,4.74583 0.52761,1.53084 0.95635,3.09521 1.23697,4.68989 0.27508,1.63229 0.19573,3.27681 0.0264,4.91336 -0.21452,1.42925 -0.54787,2.84214 -0.94105,4.23246 -0.36218,1.22694 -0.80671,2.41914 -1.3231,3.58826 -0.32448,0.60868 -0.74416,1.13737 -1.09437,1.73457 -0.0896,0.11188 -0.17924,0.22376 -0.26885,0.33564 0,0 11.1148,0.70523 11.1148,0.70523 v 0 c 0.0913,-0.1344 0.18265,-0.26879 0.27397,-0.40319 0.43706,-0.61763 0.89607,-1.19782 1.08862,-1.94844 0.44113,-1.22412 0.83437,-2.46172 1.21373,-3.70643 0.41619,-1.44939 0.75603,-2.91966 0.89662,-4.42458 0.18065,-1.73095 0.24615,-3.46989 -0.002,-5.19998 -0.24039,-1.67926 -0.73284,-3.29317 -1.32324,-4.88229 -0.57828,-1.72038 -1.1031,-3.50381 -2.15566,-5.00448 -1.26568,-1.89159 -2.54756,-3.80042 -4.18696,-5.39388 -2.19085,-1.88736 -4.48216,-3.6761 -7.10104,-4.94059 -1.08282,-0.48627 -1.3031,-0.62848 -2.41365,-0.96593 -4.08979,-1.24268 -9.18378,-0.38518 -12.88056,-0.40919 -0.30526,-0.002 -0.61066,0.0192 -0.9145,0.0487 -0.24039,0.0233 -0.47748,0.0731 -0.71622,0.10962 z" /><path
       style="fill:#6c5353;fill-opacity:1;stroke:none;stroke-width:0.5;stroke-linecap:round;stroke-linejoin:round;stroke-dasharray:none;stroke-opacity:1"
       id="path45"
       d="m 400.46893,400.31078 c 0.44797,-2.09704 0.45686,-4.22444 0.33521,-6.35411 -0.16345,-2.41243 -0.73387,-4.76203 -1.55822,-7.0272 -1.00901,-2.3425 -2.40638,-4.52615 -4.063,-6.46552 -0.45344,-0.53083 -0.9459,-1.02704 -1.41885,-1.54055 -2.69507,-2.62419 -5.76518,-4.82503 -8.85758,-6.95221 -1.0417,-0.74174 -5.3707,-2.17715 -6.47676,-2.8148 l -7.88329,2.03107 v 0 c 1.24255,0.55318 2.44876,1.19383 3.6265,1.87272 3.282,1.87869 6.47842,3.96554 9.17589,6.63945 0.44598,0.48501 0.91468,0.95008 1.33795,1.45504 1.54625,1.84466 2.74433,3.96451 3.70807,6.16138 0.82032,2.15625 1.48537,4.379 1.6456,6.69408 0.0846,2.02074 -1.11428,12.62616 -1.92159,14.51956 z" /><path
       style="fill:#6c5353;fill-opacity:1;stroke:none;stroke-width:0.5;stroke-linecap:round;stroke-linejoin:round;stroke-dasharray:none;stroke-opacity:1"
       id="path46"
       d="m 415.1759,384.55555 c -0.17664,-2.21919 4.71955,-0.93135 3.73731,-3.02019 -0.56343,-1.97032 -1.42118,-3.88848 -2.95598,-5.30044 -2.95165,-3.12533 -7.10723,-6.55173 -10.84884,-8.58945 -6.1168,-2.9418 -15.34471,-6.1633 -21.91741,-2.15058 l -4.13015,2.7196 c 4.11458,-0.14403 9.70182,-0.3338 13.52987,1.06999 4.80099,1.8869 7.77282,3.38957 11.3445,7.14474 1.81267,1.84093 4.11352,5.70505 4.5732,8.17152 0.19471,2.87795 0.72707,5.73066 0.80307,8.61625 l 4.11857,-6.67207 z" /><path
       style="fill:#6c5353;fill-opacity:1;stroke:none;stroke-width:0.5;stroke-linecap:round;stroke-linejoin:round;stroke-dasharray:none;stroke-opacity:1"
       id="path50"
       d="m 396.05965,360.10764 c 2.15218,-0.0519 3.98962,0.20037 6.93516,0.74125 2.94554,0.54088 6.19122,1.72154 8.14033,2.92499 1.94911,1.20345 3.26764,1.89629 4.72149,3.02274 1.45385,1.12645 2.2879,-4.01376 1.76714,-5.23159 -0.52076,-1.21783 -1.06507,-1.44709 -2.38698,-2.05228 -1.32191,-0.60519 -2.32125,-1.48329 -5.29087,-2.16531 -2.96962,-0.68202 -6.13524,-1.4278 -9.06814,-1.33214 -2.9329,0.0957 -7.10505,0.84367 -8.65947,1.61418 -1.55442,0.77051 -6.37524,3.17469 -2.19973,2.78514 4.17551,-0.38955 3.88889,-0.25507 6.04107,-0.30698 z" /><path
       style="fill:#6c5353;fill-opacity:1;stroke:none;stroke-width:0.5;stroke-linecap:round;stroke-linejoin:round;stroke-dasharray:none;stroke-opacity:1"
       id="path51"
       d="m 397.07121,353.30547 c 1.88754,-0.60673 3.85484,-1.01189 5.83187,-1.17877 0.84424,-0.0713 1.69262,-0.0797 2.53893,-0.11949 2.76319,-0.0588 5.51711,0.17746 8.26738,0.40187 2.66373,0.21669 2.97019,-3.55039 0.30646,-3.76708 v 0 c -2.91446,-0.23641 -5.26939,-0.72915 -8.19742,-0.65665 -0.94961,0.0492 -2.46521,0.31127 -3.41243,0.39465 -2.30927,0.20325 -5.2747,1.33907 -7.27538,3.22829 -2.00068,1.88923 -0.52196,2.73558 1.94059,1.69718 z" /><path
       style="fill:#f0e8db;fill-opacity:1;stroke:none;stroke-width:0.5;stroke-linecap:round;stroke-linejoin:round;stroke-dasharray:none;stroke-opacity:1"
       d="m 223.55156,160.77784 c 0,0 5.02374,4.64735 13.39676,9.8908 8.37301,5.24346 22.91982,11.44746 27.13188,9.62543 4.16204,-1.80039 2.57224,-24.44359 2.57224,-29.49814 0,-5.05455 -1.51374,-24.66379 -5.46436,-25.97948 -3.72488,-1.24052 -25.63636,15.21627 -30.82156,18.99126 -5.18521,3.77499 -13.56215,10.76506 -6.81496,16.97013 z"
       id="path53" /><path
       style="display:inline;fill:#f0e8db;fill-opacity:1;stroke:none;stroke-width:0.5;stroke-linecap:round;stroke-linejoin:round;stroke-dasharray:none;stroke-opacity:1"
       d="m 147.10547,149.86246 c 0,0 -5.7087,3.77447 -14.81898,7.59598 -9.11027,3.82153 -24.46842,7.59332 -28.33069,5.11461 -3.81641,-2.44929 1.41148,-24.538 2.22827,-29.52612 0.81678,-4.98812 5.77821,-23.81751 9.59064,-24.75505 3.80625,-0.93602 22.84058,19.15895 27.34762,23.72223 4.50706,4.56327 11.64436,12.81514 3.98314,17.84835 z"
       id="path53-4" /><path
       id="path55"
       style="display:inline;fill:#dfcdba;fill-opacity:1;stroke:none;stroke-width:0.5;stroke-linecap:round;stroke-linejoin:round;stroke-dasharray:none;stroke-opacity:1"
       d="m 116.17578,108.26367 c -0.14778,-0.0107 -0.28144,-0.002 -0.40039,0.0273 -3.81243,0.93753 -8.77502,19.76774 -9.5918,24.75586 -0.29062,1.77481 -1.14,5.7456 -1.9414,10.19531 a 33.036816,27.1241 0 0 0 6.29687,0.5625 33.036816,27.1241 0 0 0 29.4668,-14.97657 c -6.60593,-6.77523 -19.90229,-20.2798 -23.83008,-20.56445 z" /><path
       id="path56"
       style="display:inline;fill:#dfcdba;fill-opacity:1;stroke:none;stroke-width:0.5;stroke-linecap:round;stroke-linejoin:round;stroke-dasharray:none;stroke-opacity:1"
       d="m 260.81728,124.73236 c 0.14761,0.0128 0.27821,0.0426 0.39102,0.0903 3.616,1.52908 5.53592,20.90736 5.55297,25.96189 0.006,1.79843 0.21632,5.8536 0.30338,10.37407 a 33.036816,27.1241 9.1061082 0 1 -6.30653,-0.44116 33.036816,27.1241 9.1061082 0 1 -26.72519,-19.45133 c 7.59495,-5.64436 22.86102,-16.8744 26.78435,-16.53385 z" /></g><g
     id="layer3"
     style="stroke:#000000;stroke-width:5.6;stroke-linecap:round;stroke-linejoin:round;stroke-dasharray:none;stroke-opacity:1"
     transform="translate(-92.050705,-100.07224)"><path
       style="display:inline;fill:none;fill-opacity:1;stroke:#390a12;stroke-width:5.6;stroke-linecap:round;stroke-linejoin:round;stroke-dasharray:none;stroke-opacity:1"
       d="m 151.5277,345.49694 c 3.89534,5.30107 5.19523,7.03403 10.06165,11.62247"
       id="path69" /><path
       style="display:inline;fill:none;fill-opacity:1;stroke:#390a12;stroke-width:5.6;stroke-linecap:round;stroke-linejoin:round;stroke-dasharray:none;stroke-opacity:1"
       d="m 134.13411,303.10803 c 2.07919,2.62773 4.56142,5.10846 7.42058,7.39395 -0.0721,0.61832 -0.13393,1.23753 -0.18555,1.85743 1e-4,10.13698 1.10781,17.45988 5.86782,25.98255"
       id="path68" /><path
       style="display:inline;fill:none;fill-opacity:1;stroke:#390a12;stroke-width:5.6;stroke-linecap:round;stroke-linejoin:round;stroke-dasharray:none;stroke-opacity:1"
       d="m 127.55329,291.06666 c 0.31986,1.48896 0.74532,2.97297 1.27427,4.44597"
       id="path66" /><path
       style="display:inline;fill:none;fill-opacity:1;stroke:#390a12;stroke-width:5.6;stroke-linecap:round;stroke-linejoin:round;stroke-dasharray:none;stroke-opacity:1"
       d="m 116.47826,258.89606 c 2.86389,3.01671 6.10656,6.00707 9.7776,8.89499 1.00821,0.79314 2.09388,1.54558 3.23437,2.26367 -1.89178,4.06668 -2.90325,8.3127 -3,12.59375"
       id="path75" /><path
       style="display:inline;fill:none;fill-opacity:1;stroke:#390a12;stroke-width:5.6;stroke-linecap:round;stroke-linejoin:round;stroke-dasharray:none;stroke-opacity:1"
       d="m 168.5127,140.27833 c -3.71645,0.38906 -5.78041,0.9678 -9.00879,1.84084 -0.0444,-0.0481 -33.49212,-36.27405 -40.7793,-38.74414 -1.05568,-0.35783 -2.11504,-0.56025 -3.18359,-0.48828 -3.2057,0.21589 -6.49924,2.90262 -10.06641,11.27734 -10.793086,25.33921 -11.919399,97.80511 -9.654298,107.40625 1.394362,5.91031 5.062908,17.65132 14.418808,29.98491"
       id="path80" /><path
       style="display:inline;fill:none;fill-opacity:1;stroke:#390a12;stroke-width:5.6;stroke-linecap:round;stroke-linejoin:round;stroke-dasharray:none;stroke-opacity:1"
       d="m 204.85586,143.68302 c -6.20731,-2.14953 -12.16457,-3.19271 -19.76797,-3.70838 -3.01294,-0.2023 -6.01007,-0.25631 -8.93954,-0.16638"
       id="path81" /><path
       style="display:inline;fill:none;fill-opacity:1;stroke:#390a12;stroke-width:5.6;stroke-linecap:round;stroke-linejoin:round;stroke-dasharray:none;stroke-opacity:1"
       d="m 273.43027,195.79705 c 1.46938,-23.70836 1.52572,-51.17534 -2.69589,-65.756 -3.46161,-11.95576 -7.57126,-13.81608 -11.90821,-13.20704 -7.48929,1.05176 -44.67187,30.54883 -44.67187,30.54883 0,0 -0.5899,-0.16228 -0.67774,-0.1875 -2.1893,-1.16123 1.33225,0.14594 -1.31292,-0.77006"
       id="path77" /><path
       style="display:inline;fill:none;fill-opacity:1;stroke:#390a12;stroke-width:5.6;stroke-linecap:round;stroke-linejoin:round;stroke-dasharray:none;stroke-opacity:1"
       d="m 272.80885,207.3439 c 0.11532,-1.3861 0.19589,-1.53587 0.30338,-3.00007"
       id="path78" /><path
       style="display:inline;fill:none;fill-opacity:1;stroke:#390a12;stroke-width:5.6;stroke-linecap:round;stroke-linejoin:round;stroke-dasharray:none;stroke-opacity:1"
       d="m 322.70459,247.24223 c -3.05067,-0.92144 -6.12887,-1.71207 -9.22172,-2.3695 -7.54622,-1.60405 -15.17966,-2.4151 -22.71334,-2.39812 -3.32796,-8.42779 -11.23879,-13.97146 -20.06445,-14.06055 -0.15651,0.0236 -0.31277,0.049 -0.46875,0.0762 0.53029,-3.60666 1.06943,-7.98686 1.57495,-12.89391"
       id="path62" /><path
       style="display:inline;fill:none;fill-opacity:1;stroke:#390a12;stroke-width:5.6;stroke-linecap:round;stroke-linejoin:round;stroke-dasharray:none;stroke-opacity:1"
       d="m 336.29571,252.47816 c -1.41008,-0.68914 -2.84306,-1.35241 -4.29834,-1.98883"
       id="path60" /><path
       style="display:inline;fill:none;fill-opacity:1;stroke:#390a12;stroke-width:5.6;stroke-linecap:round;stroke-linejoin:round;stroke-dasharray:none;stroke-opacity:1"
       d="M 366.92733,273.09667 C 360.64201,266.9108 353.35016,261.4097 345.18566,256.81092"
       id="path64" /><path
       style="display:inline;fill:none;fill-opacity:1;stroke:#390a12;stroke-width:5.6;stroke-linecap:round;stroke-linejoin:round;stroke-dasharray:none;stroke-opacity:1"
       d="m 393.05265,337.45705 c 1.38786,-22.23449 -3.62034,-40.46327 -19.48627,-57.60035"
       id="path22" /><path
       style="fill:none;fill-opacity:1;stroke:#390a12;stroke-width:5.6;stroke-linecap:round;stroke-linejoin:round;stroke-dasharray:none;stroke-opacity:1"
       d="m 261.56264,347.79502 c 1.18704,1.48043 2.17337,3.00782 2.91387,4.46625 2.06479,4.06668 5.50636,16.59412 23.95916,23.60121 18.4528,7.00709 42.60808,6.00815 48.68096,5.40953 6.07287,-0.59861 26.47181,-3.24222 40.39479,-12.66742"
       id="path73" /><path
       style="fill:none;fill-opacity:1;stroke:#390a12;stroke-width:5.6;stroke-linecap:round;stroke-linejoin:round;stroke-dasharray:none;stroke-opacity:1"
       d="m 254.2359,340.60643 c 1.29333,0.85833 0.2614,-0.12496 1.3587,0.98575"
       id="path71" /><path
       style="fill:none;fill-opacity:1;stroke:#390a12;stroke-width:5.6;stroke-linecap:round;stroke-linejoin:round;stroke-dasharray:none;stroke-opacity:1"
       d="m 393.19578,331.84039 c 0,0 13.88276,5.99937 21.48255,21.90077 8.83778,18.4917 2.21626,38.03125 -15.56867,48.20054 -11.46767,6.55714 -30.36047,12.05781 -43.24772,14.43123 -12.88725,2.37341 -36.93675,2.9883 -53.18242,1.91433 -21.08936,-1.39418 -45.32991,-8.20695 -61.30068,-20.15494 -15.97078,-11.94798 -16.17015,-33.68966 -13.79866,-43.05165 2.06838,-8.1654 5.85272,-14.31808 15.41601,-16.03239"
       id="path26" /><path
       style="fill:none;fill-opacity:1;stroke:#390a12;stroke-width:5.6;stroke-linecap:round;stroke-linejoin:round;stroke-dasharray:none;stroke-opacity:1"
       d="m 169.40325,369.94325 c -7.0051,2.82479 -11.99912,8.28915 -13.37574,15.28341 -1.27174,6.46143 -0.23191,11.80834 8.61274,16.42544 8.84464,4.6171 18.51886,2.89825 48.67911,3.54743 30.16025,0.64918 29.27567,-5.76844 29.27567,-5.76844"
       id="path28" /><ellipse
       style="display:inline;fill:none;fill-opacity:1;stroke:#390a12;stroke-width:5.6;stroke-linecap:round;stroke-linejoin:round;stroke-dasharray:none;stroke-opacity:1"
       id="path29"
       cx="100.11786"
       cy="385.97546"
       rx="22.834799"
       ry="18.932978"
       transform="rotate(-12.928733)" /><path
       style="display:inline;fill:none;fill-opacity:1;stroke:#390a12;stroke-width:1.6;stroke-linecap:round;stroke-linejoin:round;stroke-dasharray:none;stroke-opacity:1"
       d="m 180.38236,360.95773 c 0,0 -0.85958,7.4712 7.15616,10.62651"
       id="path3" /><path
       style="fill:none;fill-opacity:1;stroke:#390a12;stroke-width:1.6;stroke-linecap:round;stroke-linejoin:round;stroke-dasharray:none;stroke-opacity:1"
       d="m 194.23907,354.84057 c 0,0 6.10887,4.38627 3.05608,12.44161"
       id="path3-2" /><path
       id="path5"
       style="fill:#6c5353;fill-opacity:1;stroke:#6c5353;stroke-width:0.526;stroke-linecap:round;stroke-linejoin:round;stroke-dasharray:none;stroke-opacity:1"
       d="m 170.16602,226.26758 c -1.38684,0.0382 -2.80983,0.47875 -3.43164,1.20703 -0.90445,1.0593 -1.43987,1.60088 -1.64649,3.29101 -0.20666,1.69012 0.83225,3.93211 1.79688,5.16016 0.96462,1.22804 3.4032,3.37916 5.16796,5.00391 0.81952,0.75449 1.42911,1.23607 1.94336,1.66601 0,0 -1.1,5.09078 -3.02474,6.37213 -1.92475,1.28135 -3.28988,1.39087 -4.90049,1.90068 -0.62727,0.19854 -1.65123,0.64108 -1.28842,1.96934 0.10841,0.39691 1.22537,0.42192 1.22537,0.42192 3.84818,0.21041 8.28481,-3.19349 8.78907,-5.16016 0.2304,-0.89863 0.41887,-2.57253 0.55859,-4.13086 0.0469,0.0623 0.0941,0.11866 0.14062,0.18555 0.11123,-2.0466 0.31275,-3.53255 0.51758,-5.13477 0.0989,-1.34447 0.21451,-2.78046 0.46875,-4.66406 0.007,-0.1109 0.0164,-0.20605 0.0234,-0.32031 0.004,-0.0175 0.0114,-0.0444 0.0156,-0.0625 -0.0185,-0.72221 -0.15247,-2.02207 0.3125,-3.08985 -0.007,-0.0331 -0.0135,-0.0667 -0.0215,-0.0996 -0.0678,-0.27982 -0.17491,-0.55319 -0.33398,-0.81054 -0.84722,-1.37074 -2.80397,-2.98296 -4.52344,-3.4961 -0.53734,-0.16035 -1.1587,-0.22632 -1.78906,-0.20898 z m 6.66796,4.61523 c 0.24077,1.15367 -0.15068,2.38965 -0.3125,3.08985 4.7e-4,0.0181 0.002,0.0472 0.002,0.0645 -0.0157,0.11202 -0.0263,0.20945 -0.041,0.31836 -0.12631,1.89742 -0.29811,3.32943 -0.46875,4.66406 -0.0849,1.15419 -0.16176,2.25118 -0.30664,3.52149 -0.0575,0.50458 -0.12616,1.0381 -0.21094,1.61328 0.0428,-0.0393 0.0845,-0.0706 0.12696,-0.10742 -0.20249,1.62262 -0.38906,3.4405 -0.34961,4.41992 0.0817,2.02863 2.57213,5.86845 7.51562,6.88476 0,0 1.61171,0.11993 1.35364,-1.24067 -0.102,-0.53778 -1.19569,-1.1934 -1.80052,-1.53967 -1.00264,-0.57401 -1.84815,-1.13474 -2.94868,-2.3284 -1.84628,-2.00249 -2.26655,-7.17055 -2.26655,-7.17055 0.61278,-0.31158 1.34889,-0.64843 2.36914,-1.22461 2.04439,-1.15456 4.85207,-2.65646 6.03711,-3.61914 1.18503,-0.96269 2.64303,-2.89861 2.77735,-4.59766 0.13435,-1.69906 -0.27944,-2.35747 -0.95117,-3.61133 -0.67174,-1.25387 -3.11721,-2.32735 -4.89649,-2.24609 -1.77927,0.0813 -4.0066,1.17612 -5.10547,2.30664 -0.23038,0.23702 -0.397,0.51237 -0.52344,0.80273 z" /><path
       id="path7"
       style="stroke-width:0.267666"
       d="m 149.10286,202.75863 c 0.005,1.70634 0.002,3.4909 -1.05612,5.08248 -0.65822,1.04751 -2.23249,1.76746 -3.94,1.85467 -2.03648,0.15384 -4.34563,-0.0636 -5.76047,-1.13557 -1.74418,-1.31749 -2.00914,-3.16112 -1.98202,-4.83639 0.0688,-2.4402 0.90017,-4.9804 3.17532,-6.959 1.05643,-0.92247 2.80623,-1.73693 4.64253,-1.42409 1.9712,0.35081 3.07018,1.63084 3.74284,2.80835 0.81581,1.47202 1.12794,3.0493 1.17792,4.60955 z" /><path
       id="path7-9"
       style="stroke:#000000;stroke-width:0.267666;stroke-linecap:round;stroke-linejoin:round;stroke-dasharray:none;stroke-opacity:1"
       d="m 221.10648,211.07774 c 0.005,1.70634 0.002,3.4909 -1.05612,5.08248 -0.65822,1.04751 -2.23249,1.76746 -3.94,1.85467 -2.03648,0.15384 -4.34563,-0.0636 -5.76047,-1.13557 -1.74418,-1.31749 -2.00914,-3.16112 -1.98202,-4.83639 0.0688,-2.4402 0.90017,-4.9804 3.17532,-6.959 1.05643,-0.92247 2.80623,-1.73693 4.64253,-1.42409 1.9712,0.35081 3.07018,1.63084 3.74284,2.80835 0.81581,1.47202 1.12794,3.0493 1.17792,4.60955 z" /><path
       style="fill:none;fill-opacity:1;stroke:#dfcdba;stroke-width:3.924;stroke-linecap:round;stroke-linejoin:round;stroke-dasharray:none;stroke-opacity:1"
       d="m 154.60001,299.07959 c 0,0 -0.24091,7.00928 7.00875,13.53726"
       id="path57" /><path
       style="fill:none;fill-opacity:1;stroke:#dfcdba;stroke-width:3.924;stroke-linecap:round;stroke-linejoin:round;stroke-dasharray:none;stroke-opacity:1"
       d="m 169.99968,307.66516 c 0,0 0.99521,6.94245 9.27968,12.09412"
       id="path57-1" /><path
       style="fill:none;fill-opacity:1;stroke:#dfcdba;stroke-width:3.924;stroke-linecap:round;stroke-linejoin:round;stroke-dasharray:none;stroke-opacity:1"
       d="m 188.24554,303.26111 c 0.64727,1.04772 1.43058,2.12579 2.37759,3.21321"
       id="path58-5" /><path
       style="fill:none;fill-opacity:1;stroke:#dfcdba;stroke-width:3.924;stroke-linecap:round;stroke-linejoin:round;stroke-dasharray:none;stroke-opacity:1"
       d="m 186.00956,310.59241 c 0.66077,0.96363 1.47067,1.96575 2.46305,2.96634"
       id="path58" /></g></svg>
